<?xml version="1.0" encoding="utf-8"?>
<!-- Generator: Adobe Illustrator 27.5.0, SVG Export Plug-In . SVG Version: 6.00 Build 0)  -->
<svg version="1.1" xmlns="http://www.w3.org/2000/svg" xmlns:xlink="http://www.w3.org/1999/xlink" x="0px" y="0px"
	 viewBox="0 0 750 500" style="enable-background:new 0 0 750 500;" xml:space="preserve">
<g id="BACKGROUND">
	<rect style="fill:#F4F4F4;" width="750" height="500"/>
</g>
<g id="OBJECTS">
	<g>
		<g>
			<g>
				<g>
					<g>
						<g>
							
								<text transform="matrix(1 0 0 1 311.2185 188.8777)" style="fill:#5B5B5B; font-family:'SpartanMB-ExtraBold'; font-size:20px; letter-spacing:5;">COMPANY</text>
						</g>
					</g>
				</g>
				<g>
					
						<text transform="matrix(1 0 0 1 327.3162 204.5242)" style="fill:#5B5B5B; font-family:'SpartanMB-Regular'; font-size:10px; letter-spacing:2;">TAGLINE HERE</text>
				</g>
			</g>
		</g>
		<g>
			<g style="opacity:0.2;">
				
					<radialGradient id="SVGID_1_" cx="374.5003" cy="137.1113" r="76.0579" gradientTransform="matrix(1 0 0 0.0881 0 138.3551)" gradientUnits="userSpaceOnUse">
					<stop  offset="0" style="stop-color:#000000"/>
					<stop  offset="1" style="stop-color:#000000;stop-opacity:0"/>
				</radialGradient>
				<ellipse style="fill:url(#SVGID_1_);" cx="374.5" cy="150.433" rx="67.275" ry="7.338"/>
			</g>
			<g>
				<g>
					
						<linearGradient id="SVGID_00000142148816539089308610000004132066700245767356_" gradientUnits="userSpaceOnUse" x1="383.1039" y1="101.4818" x2="405.6117" y2="101.4818">
						<stop  offset="0" style="stop-color:#64EBEC"/>
						<stop  offset="0.9947" style="stop-color:#3B31BC"/>
					</linearGradient>
					<path style="fill:url(#SVGID_00000142148816539089308610000004132066700245767356_);" d="M405.802,133.279V69.685
						c0-7.18-5.821-13.001-13.001-13.001H383v30.532c0,0,0,40.178,0,46.303c0,6.125-4.505,12.759-10.12,12.759h19.921
						C399.981,146.279,405.802,140.459,405.802,133.279z"/>
					<path style="opacity:0.3;fill:#022C90;" d="M392.801,56.684h-2.549c7.18,0,11.854,5.821,11.854,13.001v63.594
						c0,7.18-4.675,13.001-11.854,13.001h2.549c7.18,0,13.001-5.821,13.001-13.001V69.685
						C405.802,62.505,399.981,56.684,392.801,56.684z"/>
					<path style="opacity:0.5;fill:#FFFFFF;" d="M386.365,133.52c0-6.125,0-46.303,0-46.303V56.684H383v30.532
						c0,0,0,40.178,0,46.303c0,6.125-4.505,12.759-10.12,12.759h2.219C380.714,146.279,386.365,139.645,386.365,133.52z"/>
				</g>
				<g>
					
						<linearGradient id="SVGID_00000096038467463568980980000011247514849005980039_" gradientUnits="userSpaceOnUse" x1="343.1992" y1="115.4906" x2="382.9997" y2="115.4906">
						<stop  offset="0" style="stop-color:#BA55FF"/>
						<stop  offset="0.1359" style="stop-color:#B350F9"/>
						<stop  offset="0.3403" style="stop-color:#9E43EA"/>
						<stop  offset="0.5878" style="stop-color:#7C2ED1"/>
						<stop  offset="0.8666" style="stop-color:#4E12AE"/>
						<stop  offset="1" style="stop-color:#35029C"/>
					</linearGradient>
					<path style="fill:url(#SVGID_00000096038467463568980980000011247514849005980039_);" d="M383,133.52c0-1.284,0-4.076,0-7.669
						h-8.195c-5.607,0-10.169-4.976-10.169-11.093c0-6.117,4.562-11.093,10.169-11.093c1.559,0,1.933-0.266,4.757,0V84.702
						c0,0-3.811,0-8.138,0c-15.563,0-28.224,13.812-28.224,30.788s12.661,30.789,28.224,30.789h1.457
						C378.495,146.279,383,139.645,383,133.52z"/>
					<g style="opacity:0.5;">
						<path style="fill:#FFFFFF;" d="M364.517,114.814c0,0.419,0.078,0.829,0.193,1.235c-0.046-0.424-0.075-0.854-0.075-1.291
							c0-1.757,0.386-3.413,1.055-4.89C364.944,111.335,364.517,113.021,364.517,114.814z"/>
						<path style="fill:#FFFFFF;" d="M370.783,142.765c-14.366,0-24.907-11.603-24.907-27.274s10.541-27.274,24.907-27.274
							c2.968,0,6.934,0,8.779,0v-3.514c0,0-3.811,0-8.138,0c-15.563,0-28.224,13.812-28.224,30.788s12.661,30.789,28.224,30.789
							h1.457c2.078,0,5.164-1.41,6.682-3.514H370.783z"/>
					</g>
					<path style="opacity:0.8;fill:#BA55FF;" d="M373.451,146.238c5.344-0.432,9.549-6.803,9.549-12.718c0-1.284,0-4.076,0-7.669
						h-8.195c-5.607,0-10.169-4.976-10.169-11.093c0-6.117,4.562-11.093,10.169-11.093c1.559,0,1.933-0.266,4.757,0v-3.329h-4.796
						c-7.396,0-13.391,7.141-13.391,14.537l0,0c0,7.396,5.995,14.537,13.391,14.537h5.665c0,0,0.713,4.378-0.802,9.547
						C378.198,143.836,373.923,146.01,373.451,146.238z"/>
				</g>
			</g>
		</g>
	</g>
	<g>
		<g>
			<g>
				<g>
					<g>
						<g>
							
								<text transform="matrix(1 0 0 1 533.0764 426.2487)" style="fill:#5B5B5B; font-family:'SpartanMB-ExtraBold'; font-size:20px; letter-spacing:5;">COMPANY</text>
						</g>
					</g>
				</g>
				<g>
					
						<text transform="matrix(1 0 0 1 549.1721 441.8942)" style="fill:#5B5B5B; font-family:'SpartanMB-Regular'; font-size:10px; letter-spacing:2;">TAGLINE HERE</text>
				</g>
			</g>
		</g>
		<g>
			<g style="opacity:0.2;">
				
					<radialGradient id="SVGID_00000045606787397227411960000008085277567980012698_" cx="596.3577" cy="519.2554" r="76.0579" gradientTransform="matrix(1 0 0 0.0881 0 341.8907)" gradientUnits="userSpaceOnUse">
					<stop  offset="0" style="stop-color:#000000"/>
					<stop  offset="1" style="stop-color:#000000;stop-opacity:0"/>
				</radialGradient>
				
					<ellipse style="fill:url(#SVGID_00000045606787397227411960000008085277567980012698_);" cx="596.358" cy="387.63" rx="67.275" ry="7.338"/>
			</g>
			<g>
				<g>
					
						<linearGradient id="SVGID_00000126285035464138139710000013915778805812373156_" gradientUnits="userSpaceOnUse" x1="611.1981" y1="300.7971" x2="611.1981" y2="380.6505">
						<stop  offset="0" style="stop-color:#BA55FF"/>
						<stop  offset="0.1358" style="stop-color:#B350F9"/>
						<stop  offset="0.3401" style="stop-color:#9E43EA"/>
						<stop  offset="0.5874" style="stop-color:#7C2ED1"/>
						<stop  offset="0.866" style="stop-color:#4E12AE"/>
						<stop  offset="0.9993" style="stop-color:#35029C"/>
					</linearGradient>
					<path style="fill:url(#SVGID_00000126285035464138139710000013915778805812373156_);" d="M627.659,369.457v-75.576h-8.783
						c-7.742,0-14.019,6.276-14.019,14.019v16.514c0,0,0,40.178,0,46.303c0,6.125-4.505,12.759-10.12,12.759h18.903
						C621.383,383.476,627.659,377.2,627.659,369.457z"/>
					<path style="opacity:0.5;fill:#FFFFFF;" d="M607.328,373.05c0-6.125,0-46.303,0-46.303v-16.514
						c0-7.742,6.276-14.019,14.019-14.019h6.312v-2.333h-8.783c-7.742,0-14.019,6.276-14.019,14.018v16.514c0,0,0,40.178,0,46.303
						c0,6.125-4.505,12.759-10.12,12.759h8.034C605.52,381.003,607.328,376.927,607.328,373.05z"/>
					<polygon style="opacity:0.8;fill:#BA55FF;" points="627.659,340.862 604.857,342.852 604.857,321.899 627.659,320.05 					"/>
				</g>
				<g>
					
						<linearGradient id="SVGID_00000043432567904722773800000006312220749963800705_" gradientUnits="userSpaceOnUse" x1="628.6519" y1="329.0314" x2="581.7808" y2="358.7164">
						<stop  offset="0" style="stop-color:#BA55FF"/>
						<stop  offset="0.1358" style="stop-color:#B350F9"/>
						<stop  offset="0.3401" style="stop-color:#9E43EA"/>
						<stop  offset="0.5874" style="stop-color:#7C2ED1"/>
						<stop  offset="0.866" style="stop-color:#4E12AE"/>
						<stop  offset="0.9993" style="stop-color:#35029C"/>
					</linearGradient>
					<path style="fill:url(#SVGID_00000043432567904722773800000006312220749963800705_);" d="M604.857,370.717
						c0-1.284,0-4.076,0-7.669h-8.195c-5.607,0-10.169-4.976-10.169-11.093c0-6.117,4.562-11.093,10.169-11.093
						c1.559,0,30.997,0,30.997,0v-18.963c0,0-30.05,0-34.378,0c-15.563,0-28.224,13.811-28.224,30.788
						c0,16.977,12.661,30.789,28.224,30.789h1.457C600.352,383.476,604.857,376.842,604.857,370.717z"/>
					<path style="opacity:0.8;fill:#BA55FF;" d="M594.51,362.793c-0.001,0-0.002-0.001-0.003-0.001
						c-0.006-0.001-20.396-2.801-23.702-28.7c-3.604,5.171-5.749,11.614-5.749,18.596c0,1.746,0.141,3.455,0.398,5.122
						C571.243,362.044,580.609,365.759,594.51,362.793z"/>
					<path style="opacity:0.5;fill:#FFFFFF;" d="M593.52,381.083c-14.353,0-26.031-12.738-26.031-28.396
						c0-15.658,11.677-28.396,26.031-28.396c2.707,0,21.997,0,34.139,0v-2.393c0,0-30.05,0-34.378,0
						c-15.563,0-28.224,13.811-28.224,30.788c0,16.977,12.661,30.788,28.224,30.788h1.457c2.091,0,4.027-0.922,5.634-2.393H593.52z"
						/>
				</g>
				<g>
					
						<linearGradient id="SVGID_00000170968089677569186890000009159989200321997230_" gradientUnits="userSpaceOnUse" x1="564.3051" y1="342.9072" x2="597.8961" y2="377.9303">
						<stop  offset="0" style="stop-color:#64EBEC"/>
						<stop  offset="0.1059" style="stop-color:#60E4E8"/>
						<stop  offset="0.2651" style="stop-color:#56CFDE"/>
						<stop  offset="0.4579" style="stop-color:#44ADCE"/>
						<stop  offset="0.6771" style="stop-color:#2C7EB8"/>
						<stop  offset="0.9153" style="stop-color:#0E439B"/>
						<stop  offset="1" style="stop-color:#022C90"/>
					</linearGradient>
					<path style="fill:url(#SVGID_00000170968089677569186890000009159989200321997230_);" d="M604.857,363.048h-8.195
						c-0.739,0-1.457-0.091-2.151-0.255c-18.023-2.533-24.56-15.595-26.838-23.027c-1.674,3.932-2.615,8.308-2.615,12.922
						c0,16.977,12.661,30.788,28.224,30.788h1.457c5.615,0,10.12-6.634,10.12-12.759
						C604.857,369.433,604.857,366.641,604.857,363.048z"/>
					<path style="opacity:0.3;fill:#022C90;" d="M602.149,373.743c-2.208,8.109-7.412,9.733-7.412,9.733
						c5.615,0,10.12-6.634,10.12-12.759c0-1.284,0-4.076,0-7.669h-2.841C602.016,363.048,603.472,368.883,602.149,373.743z"/>
				</g>
			</g>
		</g>
	</g>
	<g>
		<g>
			<g>
				<g>
					<g>
						<g>
							
								<text transform="matrix(1 0 0 1 89.3606 426.249)" style="fill:#5B5B5B; font-family:'SpartanMB-ExtraBold'; font-size:20px; letter-spacing:5;">COMPANY</text>
						</g>
					</g>
				</g>
				<g>
					
						<text transform="matrix(1 0 0 1 105.4583 441.8945)" style="fill:#5B5B5B; font-family:'SpartanMB-Regular'; font-size:10px; letter-spacing:2;">TAGLINE HERE</text>
				</g>
			</g>
		</g>
		<g>
			<g style="opacity:0.2;">
				
					<radialGradient id="SVGID_00000132767554875021664230000006758629848847206583_" cx="152.6427" cy="520.8967" r="76.0579" gradientTransform="matrix(1 0 0 0.0881 0 342.7649)" gradientUnits="userSpaceOnUse">
					<stop  offset="0" style="stop-color:#000000"/>
					<stop  offset="1" style="stop-color:#000000;stop-opacity:0"/>
				</radialGradient>
				
					<ellipse style="fill:url(#SVGID_00000132767554875021664230000006758629848847206583_);" cx="152.643" cy="388.648" rx="67.275" ry="7.338"/>
			</g>
			<g>
				<g>
					
						<linearGradient id="SVGID_00000056403428626548620630000001687942268054786459_" gradientUnits="userSpaceOnUse" x1="152.6426" y1="294.6386" x2="152.6426" y2="381.9358">
						<stop  offset="0" style="stop-color:#64EBEC"/>
						<stop  offset="0.9947" style="stop-color:#3B31BC"/>
					</linearGradient>
					<path style="fill:url(#SVGID_00000056403428626548620630000001687942268054786459_);" d="M149.464,383.733
						c-17.82,0-32.318-15.686-32.318-34.967c0-19.281,14.498-34.967,32.318-34.967c2.584,0,15.84-0.039,18.414-0.072v-19.589h20.26
						v89.595H149.464z M167.878,335.827c-4.941,0.018-14.083,0.05-15.81,0.05c-6.845,0-12.414,6.203-12.414,13.829
						c0,7.626,5.569,13.83,12.414,13.83h15.81V335.827z"/>
					<g style="opacity:0.5;">
						<path style="fill:#FFFFFF;" d="M167.878,294.138v19.589c-2.573,0.033-15.83,0.072-18.414,0.072
							c-17.82,0-32.318,15.686-32.318,34.967c0,19.281,14.498,34.967,32.318,34.967h38.674v-89.595H167.878z M184.975,380.568
							h-35.51c-16.075,0-29.154-14.266-29.154-31.803c0-17.536,13.078-31.803,29.154-31.803c4.47,0,21.578-0.116,21.578-0.116
							v-19.546h13.933V380.568z"/>
					</g>
					<path style="opacity:0.3;fill:#022C90;" d="M174.236,301.094v22.439c0,0-21.5,0.092-25.059,0.092
						c-12.795,0-23.205,11.355-23.205,25.314c0,13.958,10.41,25.313,23.205,25.313h32.381v-73.158H174.236z M174.236,367.907
						h-24.078c-9.43,0-17.102-8.369-17.102-18.656c0-10.287,7.672-18.656,17.102-18.656c2.622,0,24.078-0.068,24.078-0.068V367.907z
						"/>
				</g>
				<g>
					
						<linearGradient id="SVGID_00000147202959911896038670000017793160849882558868_" gradientUnits="userSpaceOnUse" x1="153.7657" y1="341.3329" x2="153.7657" y2="357.7304">
						<stop  offset="0" style="stop-color:#BA55FF"/>
						<stop  offset="0.5893" style="stop-color:#6922C3"/>
						<stop  offset="1" style="stop-color:#35029C"/>
					</linearGradient>
					<path style="fill:url(#SVGID_00000147202959911896038670000017793160849882558868_);" d="M163.132,340.486
						c-3.279,0.012-9.347,0.034-10.493,0.034c-4.543,0-8.239,4.117-8.239,9.178s3.696,9.179,8.239,9.179h10.493V340.486z"/>
					<path style="opacity:0.3;fill:#FFFFFF;" d="M159.61,343.944c-2.046,0.008-5.833,0.021-6.548,0.021
						c-2.835,0-5.141,2.569-5.141,5.727c0,3.158,2.306,5.728,5.141,5.728h6.548V343.944z"/>
				</g>
			</g>
		</g>
	</g>
	<g>
		<g>
			<g>
				<g>
					<g>
						<g>
							
								<text transform="matrix(1 0 0 1 533.0762 188.8787)" style="fill:#5B5B5B; font-family:'SpartanMB-ExtraBold'; font-size:20px; letter-spacing:5;">COMPANY</text>
						</g>
					</g>
				</g>
				<g>
					
						<text transform="matrix(1 0 0 1 549.1719 204.5242)" style="fill:#5B5B5B; font-family:'SpartanMB-Regular'; font-size:10px; letter-spacing:2;">TAGLINE HERE</text>
				</g>
			</g>
		</g>
		<g>
			<g style="opacity:0.2;">
				
					<radialGradient id="SVGID_00000018210278073049893540000014764653144390151609_" cx="596.3573" cy="136.6825" r="76.0579" gradientTransform="matrix(1 0 0 0.0881 0 138.1268)" gradientUnits="userSpaceOnUse">
					<stop  offset="0" style="stop-color:#000000"/>
					<stop  offset="1" style="stop-color:#000000;stop-opacity:0"/>
				</radialGradient>
				
					<ellipse style="fill:url(#SVGID_00000018210278073049893540000014764653144390151609_);" cx="596.357" cy="150.167" rx="67.275" ry="7.338"/>
			</g>
			<g>
				
					<linearGradient id="SVGID_00000008114212311159595430000007255518807390183609_" gradientUnits="userSpaceOnUse" x1="596.3577" y1="61.4826" x2="596.3577" y2="143.6855">
					<stop  offset="0" style="stop-color:#F44B3C"/>
					<stop  offset="0.4421" style="stop-color:#993EFF"/>
					<stop  offset="0.9733" style="stop-color:#460A66"/>
				</linearGradient>
				<path style="fill:url(#SVGID_00000008114212311159595430000007255518807390183609_);" d="M621.368,73.8
					c-7.602-7.837-17.966-12.152-29.183-12.152h-4.95h-10.672H559.62v67.461h16.944v16.534h15.622
					c11.217,0,21.58-4.316,29.183-12.152c7.563-7.795,11.728-18.395,11.728-29.846C633.096,92.194,628.931,81.595,621.368,73.8z
					 M592.038,138.231h-8.962v-9.122h0.591h4.375c20.077,0,27.62-11.549,27.62-25.954c0-14.405-9.262-24.083-23.046-24.083h-9.539
					h-6.512v42.573l-10.63,0.052V69.06h10.63h6.512h3.499h0.661c0.24,0,0.477,0.012,0.715,0.018l-0.001-0.018h4.088
					c19.694,0,34.546,14.243,34.546,34.585C626.584,123.988,611.732,138.231,592.038,138.231z M583.076,121.613V85.841h9.318
					c10.21,0,16.552,5.957,16.552,17.314c0,11.356-6.342,18.412-16.552,18.412L583.076,121.613z"/>
				<path style="opacity:0.5;fill:none;stroke:#FFFFFF;stroke-width:1.097;stroke-miterlimit:10;" d="M562.438,125.499V65.288
					c0,0,29.804,0,36.094,0c6.29,0,31.451,10.937,31.451,36.548s-14.414,42.59-50.023,39.988V82.665c0,0,12.181,0,16.05,0
					c3.869,0,17.798,4.873,16.749,20.368c-1.048,15.495-8.986,22.465-23.663,22.465S562.438,125.499,562.438,125.499z"/>
				<g style="opacity:0.3;">
					<polygon style="fill:#35029C;" points="583.552,121.61 583.076,121.613 583.552,121.613 					"/>
					<rect x="576.564" y="120.034" style="fill:#35029C;" width="6.512" height="1.579"/>
					<polygon style="fill:#35029C;" points="576.564,130.67 583.076,130.67 583.076,129.109 583.552,129.109 583.552,129.091 
						576.088,129.091 576.088,129.109 576.564,129.109 					"/>
				</g>
			</g>
		</g>
	</g>
	<g>
		<g>
			<g>
				<g>
					<g>
						<g>
							
								<text transform="matrix(1 0 0 1 89.3606 188.8787)" style="fill:#5B5B5B; font-family:'SpartanMB-ExtraBold'; font-size:20px; letter-spacing:5;">COMPANY</text>
						</g>
					</g>
				</g>
				<g>
					
						<text transform="matrix(1 0 0 1 105.4583 204.5242)" style="fill:#5B5B5B; font-family:'SpartanMB-Regular'; font-size:10px; letter-spacing:2;">TAGLINE HERE</text>
				</g>
			</g>
		</g>
		<g>
			<g style="opacity:0.2;">
				
					<radialGradient id="SVGID_00000120517309416814927500000012028945577060485810_" cx="152.6427" cy="136.6826" r="76.058" gradientTransform="matrix(1 0 0 0.0881 0 138.1269)" gradientUnits="userSpaceOnUse">
					<stop  offset="0" style="stop-color:#000000"/>
					<stop  offset="1" style="stop-color:#000000;stop-opacity:0"/>
				</radialGradient>
				<path style="fill:url(#SVGID_00000120517309416814927500000012028945577060485810_);" d="M219.918,150.167
					c0,4.053-30.12,7.338-67.275,7.338c-37.155,0-67.275-3.285-67.275-7.338c0-4.052,30.12-7.338,67.275-7.338
					C189.798,142.829,219.918,146.114,219.918,150.167z"/>
			</g>
			<g>
				<g>
					
						<linearGradient id="SVGID_00000030477577991624707870000016211197578171611264_" gradientUnits="userSpaceOnUse" x1="114.9952" y1="104.0598" x2="190.29" y2="104.0598">
						<stop  offset="0" style="stop-color:#F44B3C"/>
						<stop  offset="0.1197" style="stop-color:#F45538"/>
						<stop  offset="0.3221" style="stop-color:#F66F2F"/>
						<stop  offset="0.5825" style="stop-color:#F89B1F"/>
						<stop  offset="0.8877" style="stop-color:#FBD609"/>
						<stop  offset="0.9985" style="stop-color:#FCED00"/>
					</linearGradient>
					<path style="fill:url(#SVGID_00000030477577991624707870000016211197578171611264_);" d="M178.563,74.214
						c-7.602-7.837-17.966-12.152-29.183-12.152h-34.385v83.995h34.385c11.217,0,21.58-4.316,29.183-12.152
						c7.563-7.795,11.727-18.395,11.727-29.846C190.29,92.609,186.125,82.009,178.563,74.214z M162.936,119.783
						c-4.005,4.128-9.465,6.402-15.374,6.402h-12.215V81.934h12.215c5.909,0,11.369,2.273,15.374,6.402
						c3.984,4.107,6.178,9.69,6.178,15.723C169.114,110.092,166.92,115.677,162.936,119.783z"/>
					<path style="opacity:0.5;fill:#FFFFFF;" d="M178.563,74.214c-7.602-7.837-17.966-12.152-29.183-12.152h-34.385v83.995h34.385
						c11.216,0,21.58-4.316,29.183-12.152c7.563-7.795,11.727-18.395,11.727-29.846C190.29,92.609,186.125,82.009,178.563,74.214z
						 M176.895,131.985c-7.113,7.332-16.81,11.37-27.305,11.37h-32.172v-78.59h32.172c10.495,0,20.192,4.037,27.305,11.37
						c7.076,7.293,10.973,17.211,10.973,27.925C187.867,114.773,183.971,124.691,176.895,131.985z"/>
					<path style="opacity:0.3;fill:#F44B3C;" d="M167.694,84.377c-5.014-5.168-11.849-8.014-19.246-8.014h-12.706L117.757,64.34
						h-2.762v79.439h2.762l17.985-12.022h12.706c7.397,0,14.232-2.846,19.246-8.014c4.988-5.141,7.734-12.132,7.734-19.683
						C175.429,96.508,172.682,89.518,167.694,84.377z M162.936,119.783c-4.005,4.128-9.465,6.402-15.375,6.402h-1.769h-10.446
						V81.934h10.446h1.769c5.91,0,11.369,2.273,15.375,6.402c3.984,4.107,6.178,9.69,6.178,15.723
						C169.114,110.092,166.92,115.677,162.936,119.783z"/>
				</g>
				<g>
					
						<linearGradient id="SVGID_00000041297365898540505480000011162592024419534011_" gradientUnits="userSpaceOnUse" x1="114.9952" y1="104.0598" x2="155.1624" y2="104.0598">
						<stop  offset="0" style="stop-color:#35029C"/>
						<stop  offset="0.1334" style="stop-color:#4E12AE"/>
						<stop  offset="0.4122" style="stop-color:#7C2ED1"/>
						<stop  offset="0.6597" style="stop-color:#9E43EA"/>
						<stop  offset="0.8641" style="stop-color:#B350F9"/>
						<stop  offset="1" style="stop-color:#BA55FF"/>
					</linearGradient>
					<path style="fill:url(#SVGID_00000041297365898540505480000011162592024419534011_);" d="M114.995,62.062v83.995l32.749-26.466
						c9.89-7.993,9.89-23.071,0-31.064L114.995,62.062z"/>
					<g>
						<path style="opacity:0.2;fill:#022C90;" d="M114.995,72.895v62.33l24.302-19.639c7.339-5.931,7.339-17.12,0-23.051
							L114.995,72.895z"/>
						<path style="opacity:0.5;fill:#FFFFFF;" d="M147.745,88.528l-32.75-26.466v4.547l29.203,23.6c8.82,7.127,8.82,20.573,0,27.7
							l-29.203,23.6v4.547l32.75-26.466C157.635,111.599,157.635,96.521,147.745,88.528z"/>
					</g>
				</g>
			</g>
		</g>
	</g>
	<g>
		<g>
			<g>
				<g>
					<g>
						<g>
							
								<text transform="matrix(1 0 0 1 311.2185 426.25)" style="fill:#5B5B5B; font-family:'SpartanMB-ExtraBold'; font-size:20px; letter-spacing:5;">COMPANY</text>
						</g>
					</g>
				</g>
				<g>
					
						<text transform="matrix(1 0 0 1 327.3142 441.8945)" style="fill:#5B5B5B; font-family:'SpartanMB-Regular'; font-size:10px; letter-spacing:2;">TAGLINE HERE</text>
				</g>
			</g>
		</g>
		<g>
			<g style="opacity:0.2;">
				
					<radialGradient id="SVGID_00000121274302155602453420000000813840696282898094_" cx="374.4995" cy="520.8958" r="76.0579" gradientTransform="matrix(1 0 0 0.0881 0 342.7644)" gradientUnits="userSpaceOnUse">
					<stop  offset="0" style="stop-color:#000000"/>
					<stop  offset="1" style="stop-color:#000000;stop-opacity:0"/>
				</radialGradient>
				
					<ellipse style="fill:url(#SVGID_00000121274302155602453420000000813840696282898094_);" cx="374.5" cy="388.648" rx="67.275" ry="7.338"/>
			</g>
			<g>
				<g>
					
						<linearGradient id="SVGID_00000160192006973246441970000002765436826650890880_" gradientUnits="userSpaceOnUse" x1="397.8788" y1="341.6016" x2="336.5227" y2="341.6016">
						<stop  offset="0.0267" style="stop-color:#460A66"/>
						<stop  offset="0.0554" style="stop-color:#4C0D70"/>
						<stop  offset="0.2395" style="stop-color:#6D22AD"/>
						<stop  offset="0.3958" style="stop-color:#8531DA"/>
						<stop  offset="0.5166" style="stop-color:#933BF5"/>
						<stop  offset="0.5872" style="stop-color:#993EFF"/>
						<stop  offset="0.6366" style="stop-color:#9B3EFA"/>
						<stop  offset="0.6962" style="stop-color:#A23FEB"/>
						<stop  offset="0.7612" style="stop-color:#AE41D3"/>
						<stop  offset="0.8299" style="stop-color:#BE43B1"/>
						<stop  offset="0.9016" style="stop-color:#D24685"/>
						<stop  offset="0.9747" style="stop-color:#EB4A50"/>
						<stop  offset="1" style="stop-color:#F44B3C"/>
					</linearGradient>
					<path style="fill:url(#SVGID_00000160192006973246441970000002765436826650890880_);" d="M412.147,341.601
						c0,11.451-4.165,22.051-11.728,29.846c-7.602,7.836-17.966,12.152-29.183,12.152H347.81l9.63-19.872h15.412
						c5.909,0,11.369-2.274,15.374-6.402c3.984-4.107,6.178-9.691,6.178-15.724c0-6.033-2.194-11.617-6.178-15.723
						c-4.005-4.129-9.465-6.402-15.374-6.402H357.44l-9.63-19.872h23.427c11.217,0,21.581,4.315,29.183,12.152
						C407.982,319.551,412.147,330.151,412.147,341.601z M371.249,356.331c3.934,0,7.569-1.514,10.235-4.262
						c2.652-2.734,4.113-6.452,4.113-10.468c0-4.016-1.461-7.733-4.113-10.467c-2.666-2.749-6.301-4.262-10.235-4.262h-21.183
						l-13.214-27.268v83.995l13.214-27.268H371.249z"/>
					<g style="opacity:0.2;">
						<path style="opacity:0.9;fill:#BA55FF;" d="M394.692,341.601c0-11.45-4.165-22.05-11.728-29.845
							c-7.556-7.789-17.842-12.095-28.98-12.147c1.829,0.063,15.957,1.015,27.194,15.34c2.454,3.128,4.428,6.444,5.924,9.883
							c0.382,0.34,0.766,0.677,1.124,1.047c3.984,4.107,6.178,9.69,6.178,15.723c0,6.033-2.194,11.617-6.178,15.724
							c-0.603,0.621-1.249,1.186-1.914,1.722c-1.304,2.751-2.915,5.462-4.844,8.108c-10.484,14.381-22.967,16.202-26.628,16.419
							c10.808-0.263,20.762-4.538,28.124-12.126C390.527,363.652,394.692,353.052,394.692,341.601z"/>
						<path style="fill:#022C90;" d="M353.984,299.609c-0.13-0.004-0.203-0.005-0.203-0.005
							C353.849,299.604,353.916,299.609,353.984,299.609z"/>
						<path style="fill:#022C90;" d="M354.21,383.599c0.166-0.003,0.374-0.01,0.63-0.025c-0.353,0.009-0.704,0.025-1.058,0.025
							H354.21z"/>
					</g>
					<path style="opacity:0.9;fill:#BA55FF;" d="M381.484,331.134c-2.666-2.749-6.301-4.262-10.235-4.262h-21.183l-13.214-27.268
						v6.94l11.03,22.762h22.499c3.284,0,6.318,1.263,8.544,3.558c2.214,2.282,3.433,5.385,3.433,8.738
						c0,3.352-1.219,6.456-3.433,8.738c-2.226,2.294-5.26,3.557-8.544,3.557h-22.499l-11.03,22.762v6.94l13.214-27.268h21.183
						c3.934,0,7.569-1.514,10.235-4.262c2.652-2.734,4.113-6.452,4.113-10.468C385.597,337.585,384.136,333.868,381.484,331.134z"/>
					<path style="opacity:0.3;fill:#FFFFFF;" d="M369.278,350.508c2.379,0,4.577-0.915,6.189-2.577
						c1.604-1.653,2.487-3.901,2.487-6.329c0-2.428-0.883-4.676-2.487-6.329c-1.612-1.662-3.81-2.577-6.189-2.577l-24.436,0
						l-7.99-16.488v50.789l7.99-16.488H369.278z"/>
				</g>
				<g>
					
						<linearGradient id="SVGID_00000183951376456513145200000001036900808798181282_" gradientUnits="userSpaceOnUse" x1="353.7816" y1="341.6016" x2="412.1469" y2="341.6016">
						<stop  offset="0" style="stop-color:#F44B3C"/>
						<stop  offset="0.1197" style="stop-color:#F45538"/>
						<stop  offset="0.3221" style="stop-color:#F66F2F"/>
						<stop  offset="0.5825" style="stop-color:#F89B1F"/>
						<stop  offset="0.8877" style="stop-color:#FBD609"/>
						<stop  offset="0.9985" style="stop-color:#FCED00"/>
					</linearGradient>
					<path style="fill:url(#SVGID_00000183951376456513145200000001036900808798181282_);" d="M400.419,311.756
						c-7.602-7.837-17.966-12.152-29.183-12.152h-17.455c11.217,0,21.58,4.315,29.183,12.152
						c7.563,7.795,11.728,18.395,11.728,29.845c0,11.451-4.165,22.051-11.728,29.846c-7.602,7.836-17.966,12.152-29.183,12.152
						h17.455c11.217,0,21.581-4.316,29.183-12.152c7.563-7.795,11.728-18.395,11.728-29.846
						C412.147,330.151,407.982,319.551,400.419,311.756z"/>
					<path style="opacity:0.3;fill:#F44B3C;" d="M400.419,311.756c-7.602-7.837-17.966-12.152-29.183-12.152h-3.675
						c11.217,0,21.58,4.315,29.183,12.152c7.563,7.795,11.728,18.395,11.728,29.845c0,11.451-4.165,22.051-11.728,29.846
						c-7.602,7.836-17.966,12.152-29.183,12.152h3.675c11.217,0,21.581-4.316,29.183-12.152
						c7.563-7.795,11.728-18.395,11.728-29.846C412.147,330.151,407.982,319.551,400.419,311.756z"/>
					<path style="opacity:0.5;fill:#FFFFFF;" d="M398.957,341.601c0-11.45-4.165-22.05-11.728-29.845
						c-7.602-7.837-16.87-12.152-28.087-12.152h-5.361c11.217,0,21.58,4.315,29.183,12.152c7.563,7.795,11.728,18.395,11.728,29.845
						c0,11.451-4.165,22.051-11.728,29.846c-7.602,7.836-17.966,12.152-29.183,12.152h5.361c11.217,0,20.485-4.316,28.087-12.152
						C394.792,363.652,398.957,353.052,398.957,341.601z"/>
				</g>
			</g>
		</g>
	</g>
</g>
</svg>
